<svg width="400" height="400" viewBox="0 0 400 400" fill="none" xmlns="http://www.w3.org/2000/svg">
<g clip-path="url(#clip0_55_785)">
<path d="M293.962 225.537L400 165.572L281.818 136.547L301.292 15.7866L205.021 90.5903L123.272 0L121.425 122.322L0 130.086L93.972 207.814L24.3085 308.106L143.316 282.697L177.883 400L232.336 290.6L345.095 336.557L293.962 225.537Z" fill="#ED4FAC"/>
<path d="M350.537 106.139L131.427 61.585L62.6475 310.456L269.712 364.297L350.537 106.139Z" fill="white" stroke="black" stroke-width="0.48" stroke-miterlimit="10"/>
<path d="M350.537 106.14L366.14 123.467L292.488 358.172L269.712 364.297L350.537 106.14Z" fill="white" stroke="black" stroke-width="0.48" stroke-miterlimit="10"/>
<path d="M350.537 106.455L345.546 121.372" stroke="black" stroke-width="0.48" stroke-miterlimit="10"/>
<path d="M270.007 364.317L274.31 349.795L66.8921 295.184L62.6475 310.457L270.007 364.317Z" fill="#4251D6" stroke="black" stroke-width="0.48" stroke-miterlimit="10"/>
<path d="M356.472 113.192L278.457 361.925" stroke="black" stroke-width="0.48" stroke-miterlimit="10"/>
<path d="M361.719 118.566L286.671 360.068" stroke="black" stroke-width="0.48" stroke-miterlimit="10"/>
<path d="M297.145 344.4L274.31 349.794L269.889 364.356L292.488 358.172L297.145 344.4Z" fill="#4251D6" stroke="black" stroke-width="0.48" stroke-miterlimit="10"/>
<path d="M280.344 240.119L117.77 199.575" stroke="black" stroke-width="0.48" stroke-miterlimit="10"/>
<path d="M270.321 273.095L107.767 232.571" stroke="black" stroke-width="0.48" stroke-miterlimit="10"/>
<path d="M257.961 311.05L95.4062 270.526" stroke="black" stroke-width="0.48" stroke-miterlimit="10"/>
<path d="M290.994 107.265C290.738 109.794 292.546 112.047 295.062 112.304C297.577 112.561 299.817 110.743 300.073 108.214C300.328 105.685 298.52 103.432 296.005 103.176C293.489 102.919 291.249 104.736 290.994 107.265Z" fill="black"/>
<path d="M328.862 114.2C328.606 116.729 330.414 118.981 332.93 119.238C335.445 119.495 337.685 117.677 337.941 115.148C338.196 112.619 336.388 110.367 333.873 110.11C331.358 109.853 329.117 111.671 328.862 114.2Z" fill="black"/>
<path d="M250.827 97.8807C250.571 100.41 252.379 102.662 254.895 102.919C257.41 103.176 259.65 101.358 259.906 98.8291C260.161 96.3 258.353 94.0476 255.838 93.7908C253.322 93.5339 251.082 95.3517 250.827 97.8807Z" fill="black"/>
<path d="M214.197 89.6014C213.941 92.1304 215.749 94.3828 218.265 94.6397C220.78 94.8965 223.02 93.0788 223.276 90.5498C223.531 88.0208 221.723 85.7683 219.208 85.5115C216.693 85.2546 214.452 87.0724 214.197 89.6014Z" fill="black"/>
<path d="M179.042 81.4813C178.786 84.0103 180.594 86.2627 183.109 86.5196C185.625 86.7764 187.865 84.9587 188.12 82.4297C188.376 79.9006 186.568 77.6482 184.053 77.3914C181.537 77.1345 179.297 78.9523 179.042 81.4813Z" fill="black"/>
<path d="M138.776 72.8074C138.521 75.3365 140.328 77.5889 142.844 77.8457C145.359 78.1026 147.599 76.2849 147.855 73.7558C148.11 71.2268 146.302 68.9744 143.787 68.7175C141.272 68.4607 139.031 70.2784 138.776 72.8074Z" fill="black"/>
<path d="M144.337 73.7168C147.108 67.4338 149.446 60.3604 155.008 55.8161C160.864 51.0149 168.351 50.8371 174.875 54.6899C177.724 56.3693 180.692 58.7995 182.834 61.6249C180.476 63.9366 178.609 66.7422 177.43 69.9035C175.445 75.2974 177.371 85.1567 185.585 83.5563C188.768 82.9438 190.164 79.6837 190.478 76.8781C190.95 72.6894 190.301 67.8487 188.65 63.9168C188.415 63.3636 188.14 62.8302 187.845 62.2967C190.773 60.1036 194.271 58.6019 197.926 58.2068C203.9 57.5745 209.559 60.2616 213.509 64.5293C215.415 66.5842 217.911 69.8047 219.778 73.3019C216.477 77.3325 212.684 83.7538 215.769 88.9107C218.579 93.5933 224.258 90.1357 225.555 86.3026C226.224 84.3268 226.263 82.193 226.007 80.1184C225.909 79.4466 224.16 74.3095 224.317 74.1515C225.831 72.5511 227.579 71.2075 229.505 70.0616C234.045 67.3942 239.606 66.2878 244.755 68.1253C249.412 69.785 253.146 73.3019 255.563 77.4115C256.251 78.5773 256.879 79.8022 257.43 81.0668C257.548 81.3236 254.423 85.5123 254.128 86.1248C253.244 87.9425 252.654 89.8393 252.222 91.7953C251.672 94.3046 250.788 98.1969 253.185 100.153C256.152 102.583 260.318 99.3429 261.832 96.8929C264.425 92.6449 263.679 87.3103 262.225 82.8055C262.126 82.4893 262.008 82.193 261.89 81.8768C266.391 77.7474 272.777 75.5148 279.026 76.2458C286.965 77.1744 293.195 83.1611 296.614 89.9776C293.981 93.2772 291.839 97.1893 290.679 101.18C289.638 104.776 289.5 110.289 294.649 110.783C299.483 111.257 302.451 105.626 302.961 101.773C303.472 97.9796 302.627 94.1465 301.114 90.5703C303.512 88.0413 306.4 86.026 309.741 84.9788C326.032 79.8418 337.823 102.287 330.729 114.636C329.51 116.75 333.165 118.152 334.364 116.058C335.504 114.063 336.231 111.889 336.585 109.637C338.019 100.37 333.44 89.7207 325.56 84.1292C316.973 78.024 306.42 80.395 299.365 87.0337C299.031 86.4409 298.677 85.8679 298.324 85.3147C292.212 75.8704 281.64 70.1999 270.144 73.2624C266.43 74.2503 263.148 75.9692 260.397 78.2414C258.923 75.1986 256.997 72.314 254.541 69.9825C250.257 65.8926 244.676 63.3043 238.584 63.5019C232.551 63.6995 226.911 66.6237 222.568 70.4962C219.896 65.5172 216.084 60.7161 211.328 57.7919C203.074 52.7141 193.092 53.9983 185.88 59.1749C182.755 55.1443 178.216 51.7855 173.775 49.9084C166.523 46.846 158.604 47.9524 152.649 52.8721C146.518 57.9104 143.846 65.3789 140.78 72.314C139.798 74.5466 143.433 75.9692 144.416 73.7365L144.337 73.7168ZM294.413 102.149C295.258 99.4219 296.555 96.6558 298.265 94.1268C299.424 97.7425 299.837 102.069 297.498 105.251C296.752 106.238 294.865 108.115 293.961 106.278C293.411 105.171 294.079 103.235 294.413 102.149ZM258.766 85.5913C259.336 86.1841 259.493 87.7647 259.572 88.5945C259.69 89.7405 259.65 90.9062 259.454 92.0522C259.198 93.4945 258.451 96.8534 256.722 97.2485C255.366 97.5647 255.563 95.1344 255.661 94.3046C255.799 93.2377 255.975 92.151 256.231 91.1038C256.585 89.6615 256.958 87.7252 257.921 86.4212C258.157 86.0853 258.432 85.7889 258.766 85.5716V85.5913ZM221.586 77.4906C222.902 81.4422 222.863 85.3147 219.876 87.982C217.322 85.7494 219.228 81.4224 220.623 78.9527C220.918 78.4389 221.252 77.9845 221.586 77.4906ZM184.897 65.0233C185.054 65.3789 185.231 65.7346 185.349 66.0902C186.43 69.1922 186.921 72.7882 186.646 76.0285C186.371 79.1107 185.015 81.2841 181.773 78.7551C178.176 75.9494 181.419 69.6269 183.404 66.841C183.856 66.2088 184.347 65.5963 184.877 65.0233H184.897Z" fill="#F8D608" stroke="black" stroke-width="0.48" stroke-miterlimit="10"/>
<path d="M203.291 173.534L200.835 183.216C200.835 183.216 187.57 177.624 185.605 185.488C183.954 192.107 194.035 194.833 194.035 194.833C194.035 194.833 183.404 190.803 181.262 199.279C179.631 205.7 195.254 207.972 195.254 207.972" stroke="black" stroke-width="0.48" stroke-miterlimit="10"/>
<path d="M195.077 166.362C193.387 170.946 195.981 176.142 200.894 177.979C205.806 179.817 211.132 177.565 212.822 172.981C214.512 168.397 211.918 163.2 207.005 161.363C202.112 159.545 196.767 161.778 195.077 166.362Z" fill="#EC461E" stroke="black" stroke-width="0.48" stroke-miterlimit="10"/>
<path d="M216.084 199.219C213.549 208.9 223.65 219.965 238.624 223.936C253.618 227.907 267.806 223.264 270.341 213.583C272.876 203.902 262.775 192.837 247.801 188.866C232.827 184.894 218.619 189.537 216.084 199.219Z" fill="#F9C9BE"/>
<path d="M125.021 176.833C122.486 186.515 132.586 197.579 147.56 201.55C162.554 205.522 176.742 200.879 179.277 191.197C181.812 181.516 171.712 170.451 156.738 166.48C141.744 162.509 127.556 167.152 125.021 176.833Z" fill="#F9C9BE"/>
<path d="M223.709 190.15C230.921 189.458 239.646 190.446 248.587 193.311C249.943 193.746 251.26 194.2 252.517 194.714C259.101 197.203 264.858 200.464 269.319 204.04C273.19 197.875 276.433 190.446 278.693 182.227C279.557 179.046 280.206 175.924 280.678 172.842C281.975 164.642 281.974 156.818 280.795 150.081C278.811 138.542 273.446 130.125 265.487 127.952C265.271 127.893 265.055 127.853 264.839 127.814C254.856 125.561 243.556 133.622 235.283 147.473C235.264 147.473 235.244 147.512 235.244 147.532C231.923 153.143 229.054 159.723 227.03 166.934C226.912 167.31 226.794 167.685 226.696 168.08C224.593 175.746 223.63 183.294 223.689 190.17L223.709 190.15Z" fill="#F8D608" stroke="black" stroke-width="0.48" stroke-miterlimit="10"/>
<path d="M290.759 139.53C290.759 139.53 288.912 148.698 280.815 150.081" stroke="black" stroke-width="0.48" stroke-miterlimit="10"/>
<path d="M295.298 151.444C295.298 151.444 290.915 160.711 282.053 159.348" stroke="black" stroke-width="0.48" stroke-miterlimit="10"/>
<path d="M293.942 166.104C293.942 166.104 289.619 174.027 280.697 172.842" stroke="black" stroke-width="0.48" stroke-miterlimit="10"/>
<path d="M235.264 147.512C235.264 147.512 235.284 147.473 235.303 147.453C243.576 133.603 254.876 125.542 264.859 127.794C269.064 134.215 270.656 143.106 268.592 152.195C267.571 156.68 265.743 160.711 263.385 164.149L251.909 156.957L257.784 170.313C252.38 174.778 245.738 176.814 239.214 175.312C234.222 174.166 230.056 171.103 227.05 166.895C229.074 159.683 231.943 153.104 235.264 147.493V147.512Z" fill="black" stroke="black" stroke-width="0.48" stroke-miterlimit="10"/>
<path d="M238.034 147.73C249.55 154.23 244.833 154.823 241.552 169.009C248.292 156.107 246.15 153.38 259.081 156.028C247.565 149.528 250.886 149.152 254.148 134.946C247.408 147.848 250.965 150.377 238.034 147.73Z" fill="white"/>
<path d="M131.388 168.081C131.388 168.081 131.388 168.239 131.388 168.318C131.388 168.377 131.388 168.436 131.388 168.515C131.388 168.752 131.388 168.989 131.427 169.207C132.488 169.009 133.569 168.871 134.689 168.752C135.298 168.673 135.907 168.614 136.556 168.575H136.575C142.117 168.16 148.307 168.495 154.733 169.74C157.288 170.214 159.744 170.827 162.083 171.538C162.417 171.637 162.731 171.736 163.046 171.835C168.843 173.672 173.972 176.102 178.098 178.888C181.4 172.862 184.171 165.789 185.959 158.024C192.11 131.726 185.35 107.621 170.886 104.183C162.869 102.267 154.144 107.127 146.951 116.295C146.951 116.295 146.951 116.315 146.932 116.295C145.851 117.678 144.79 119.199 143.787 120.8C143.689 120.978 143.571 121.116 143.493 121.294C143.335 121.511 143.198 121.748 143.041 121.965C142.864 122.242 142.667 122.538 142.49 122.855C142.196 123.329 141.901 123.803 141.645 124.297C141.272 124.949 140.918 125.581 140.565 126.253C140.211 126.944 139.857 127.636 139.543 128.328C138.639 130.165 137.794 132.141 137.027 134.196C136.772 134.867 136.516 135.539 136.281 136.231C136.261 136.27 136.241 136.31 136.241 136.349C135.907 137.298 135.573 138.266 135.278 139.254C135.062 139.925 134.866 140.617 134.669 141.328C134.532 141.842 134.375 142.375 134.237 142.889C134.198 143.027 134.158 143.146 134.119 143.284C133.923 144.015 133.726 144.806 133.549 145.576C131.702 153.44 131.034 161.126 131.368 168.1L131.388 168.081Z" fill="#F8D608" stroke="black" stroke-width="0.48" stroke-miterlimit="10"/>
<path d="M143.217 102.247C143.217 102.247 140.486 111.178 146.951 116.295" stroke="black" stroke-width="0.48" stroke-miterlimit="10"/>
<path d="M133.569 110.525C133.569 110.525 133.019 120.76 141.469 123.822" stroke="black" stroke-width="0.48" stroke-miterlimit="10"/>
<path d="M127.791 124.06C127.791 124.06 127.83 133.089 136.241 136.329" stroke="black" stroke-width="0.48" stroke-miterlimit="10"/>
<path d="M141.861 124.712C141.861 124.712 141.881 124.672 141.901 124.653C149.899 110.644 161.041 102.366 171.083 104.421C175.406 110.763 177.175 119.614 175.268 128.743C174.325 133.247 172.576 137.318 170.277 140.795L158.938 134.472L164.794 147.078C159.469 151.642 152.866 153.815 146.322 152.432C141.311 151.385 137.086 148.402 134.001 144.233C135.887 136.982 138.639 130.343 141.842 124.672L141.861 124.712Z" fill="black" stroke="black" stroke-width="0.48" stroke-miterlimit="10"/>
<path d="M145.261 123.27C156.776 129.77 152.06 130.363 148.778 144.549C155.519 131.647 153.377 128.921 166.307 131.568C154.792 125.068 158.113 124.692 161.375 110.486C154.634 123.388 158.191 125.917 145.261 123.27Z" fill="white"/>
<path d="M290.406 113.706C289.069 112.758 287.655 111.908 286.2 111.157C284.786 110.367 283.312 109.675 281.799 109.083C278.812 107.877 275.707 106.929 272.504 106.475C269.34 105.862 266.097 105.783 262.874 105.961C261.263 106.04 259.652 106.237 258.04 106.534C256.429 106.791 254.817 107.127 253.245 107.601L253.206 107.522C259.357 105.111 266.137 104.479 272.641 105.546C279.146 106.633 285.375 109.418 290.445 113.647L290.386 113.726L290.406 113.706Z" fill="black"/>
<path d="M191.265 104.341C190.047 103.254 188.75 102.286 187.394 101.397C186.077 100.488 184.702 99.6585 183.267 98.9472C180.437 97.5049 177.431 96.3589 174.326 95.7662C171.24 95.0154 168.037 94.8573 164.873 94.9956C163.282 95.0746 161.69 95.2525 160.118 95.5488C158.526 95.8057 156.954 96.1613 155.402 96.6553L155.362 96.5762C161.395 94.0867 168.155 93.4742 174.542 94.8375C180.929 96.2008 186.844 99.5597 191.344 104.282L191.285 104.341H191.265Z" fill="black"/>
<path d="M233.102 261.576C239.548 278.765 252.989 295.5 265.487 308.738C277.062 321.008 297.794 331.242 310.921 314.725C321.552 301.348 318.821 279.575 315.657 264.124C313.908 255.628 311.314 247.607 308.032 239.901C310.233 233.559 312.356 227.197 314.301 220.775C322.672 236.522 328.627 253.178 330.985 271.316C333.618 291.509 332.773 316.799 314.891 330.057C297.244 343.136 275.372 336.873 260.26 323.181C251.515 315.258 244.48 305.458 237.504 295.994C230.312 286.214 223.866 276.315 219.582 264.875C216.418 256.439 230.017 253.238 233.142 261.576H233.102Z" fill="black"/>
<path d="M219.288 234.567C219.288 234.567 206.377 204.989 217.244 204.554C225.655 204.238 233.338 233.658 233.338 233.658C233.338 233.658 254.129 240.277 241.926 263.571C241.729 263.966 243.596 267.839 243.675 268.629C243.911 270.803 243.262 272.798 241.651 274.3C235.696 279.832 227.05 283.171 218.993 280.939C217.224 280.445 215.849 279.062 215.377 277.283L214.434 273.549C214.434 273.549 205.552 274.122 199.637 263.71C197.888 260.647 196.021 257.683 194.508 254.483C193.446 252.27 192.503 249.978 191.894 247.607C191.344 245.414 191.069 242.865 192.091 240.751C193.309 238.222 196.158 236.957 198.87 237.372C200.501 237.629 202.682 238.38 203.822 239.684C203.822 239.684 203.842 239.723 203.862 239.723C203.704 239.486 203.567 239.17 203.429 238.755C202.211 234.903 204.196 230.576 207.969 229.173C208.715 228.896 209.58 228.718 210.582 228.679C214.277 228.54 217.971 230.437 219.307 234.567H219.288Z" fill="white" stroke="black" stroke-width="0.48" stroke-miterlimit="10"/>
<path d="M214.493 273.549C214.493 273.549 216.91 274.281 223.513 273.154L214.493 273.549Z" fill="white"/>
<path d="M214.493 273.549C214.493 273.549 216.91 274.281 223.513 273.154" stroke="black" stroke-width="0.48" stroke-miterlimit="10"/>
<path d="M233.79 269.953C233.79 269.953 237.936 268.827 241.926 263.591L233.79 269.953Z" fill="white"/>
<path d="M233.79 269.953C233.79 269.953 237.936 268.827 241.926 263.591" stroke="black" stroke-width="0.48" stroke-miterlimit="10"/>
<path d="M218.895 233.559L220.565 238.34" stroke="black" stroke-width="0.48" stroke-miterlimit="10"/>
<path d="M203.724 239.388L206.16 244.703" stroke="black" stroke-width="0.48" stroke-miterlimit="10"/>
<path d="M233.318 233.658L236.718 243.498" stroke="black" stroke-width="0.48" stroke-miterlimit="10"/>
<path d="M226.991 238.716C227.129 239.387 227.797 239.822 228.465 239.684C229.133 239.545 229.566 238.874 229.428 238.202C229.291 237.53 228.622 237.095 227.954 237.234C227.286 237.372 226.854 238.044 226.991 238.716Z" fill="black"/>
<path d="M213.982 244.011C214.119 244.683 214.787 245.118 215.455 244.98C216.124 244.841 216.556 244.169 216.418 243.498C216.281 242.826 215.613 242.391 214.944 242.53C214.276 242.668 213.844 243.34 213.982 244.011Z" fill="black"/>
<path d="M199.853 249.958C199.99 250.629 200.658 251.064 201.327 250.926C201.995 250.788 202.427 250.116 202.289 249.444C202.152 248.772 201.484 248.338 200.816 248.476C200.147 248.614 199.715 249.286 199.853 249.958Z" fill="black"/>
<path d="M42.0927 234.052C55.7502 238.913 71.0585 235.87 85.1091 229.172L90.1791 210.856C78.5653 218.404 65.0256 223.6 52.665 222.514C41.7193 221.545 34.1536 214.512 37.848 203.289C41.0708 193.41 48.381 184.223 56.0057 177.327C62.4709 171.499 54.0799 160.829 47.595 166.697C29.1622 183.334 7.23144 221.684 42.073 234.052H42.0927Z" fill="black"/>
<path d="M75.9714 68.2827L32.0117 88.1394L46.7894 126.648L52.9599 142.711L57.2831 153.933L91.1618 242.173L113.21 260.389L128.637 273.153C129.639 266.337 130.621 259.52 131.624 252.684L135.77 224.153L101.361 134.393L97.0572 123.151L90.8867 107.087L75.9911 68.2432L75.9714 68.2827Z" fill="#F8D608" stroke="black" stroke-width="0.48" stroke-miterlimit="10"/>
<path d="M91.1621 242.173L93.9526 226.979L106.962 236.502L108.514 218.7L121.602 230.199L124.078 215.479L135.751 224.193L128.637 273.173L91.1621 242.173Z" fill="white" stroke="black" stroke-width="0.48" stroke-miterlimit="10"/>
<path d="M113.211 260.409C113.368 259.54 114.469 253.573 119.558 251.044C125.316 248.199 131.094 252.308 131.624 252.684C130.642 259.5 129.639 266.337 128.657 273.153L113.231 260.389L113.211 260.409Z" fill="black" stroke="black" stroke-width="0.48" stroke-miterlimit="10"/>
<path d="M94.1291 227.235L39.8525 84.9385" stroke="black" stroke-width="0.48" stroke-miterlimit="10"/>
<path d="M108.691 219.431L53.6279 78.7744" stroke="black" stroke-width="0.48" stroke-miterlimit="10"/>
<path d="M124.313 215.835L67.6787 71.9375" stroke="black" stroke-width="0.48" stroke-miterlimit="10"/>
<path d="M29.4764 81.2444C29.4764 81.2444 17.3713 55.3614 40.4221 44.5538C63.4926 33.7462 73.4361 61.3679 73.4361 61.3679L29.4764 81.2246V81.2444Z" fill="#EC461E" stroke="black" stroke-width="0.48" stroke-miterlimit="10"/>
<path d="M37.4746 57.1009C32.8566 60.025 30.3609 67.296 32.9155 74.1718C33.4461 75.6141 31.7168 76.1871 31.1666 74.7447C28.2778 66.9403 31.0094 58.3851 36.2759 55.046C37.2781 54.4138 38.4768 56.4489 37.4549 57.1009H37.4746Z" fill="white"/>
<path d="M40.3047 55.6976C39.1846 56.073 38.4379 53.781 39.558 53.4056C40.6781 53.0302 41.4249 55.3222 40.3047 55.6976Z" fill="white"/>
<path d="M32.0112 88.14L76.0888 68.4018L73.4752 61.4668L29.5352 81.1852L32.0112 88.14Z" fill="black" stroke="black" stroke-width="0.48" stroke-miterlimit="10"/>
<path d="M40.1083 165.967C40.1083 165.967 30.6954 163.774 32.012 170.472C33.0142 175.569 38.1628 185.369 40.5406 189.736C42.1324 192.64 44.8639 193.707 48.1063 192.107C50.1501 191.099 51.2112 187.957 50.8968 187.424C56.2419 192.936 66.6767 189.36 74.0066 184.895C97.7452 170.432 100.555 160.691 97.4308 157.096C93.1469 152.176 79.1749 165.335 79.1749 165.335L85.4043 160.356C85.4043 160.356 98.0793 149.568 93.8543 143.304C89.6293 137.041 70.9214 155.673 70.9214 155.673L77.0132 150.615C84.1466 143.522 88.0965 137.259 84.0484 133.425C78.3102 127.992 56.0454 150.496 56.0454 150.496C55.2201 148.442 54.041 145.399 52.4493 141.447C52.4493 141.447 35.1759 148.086 40.1083 165.967Z" fill="white" stroke="black" stroke-width="0.48" stroke-miterlimit="10"/>
<path d="M64.9082 152.077C66.1069 153.875 63.4933 155.772 62.2749 153.974C61.0762 152.176 63.6898 150.279 64.9082 152.077Z" fill="black"/>
<path d="M72.1992 163.26C73.3979 165.058 70.7843 166.955 69.5659 165.157C68.3672 163.359 70.9808 161.462 72.1992 163.26Z" fill="black"/>
<path d="M80.04 173.415C81.2387 175.213 78.6251 177.11 77.4067 175.312C76.208 173.514 78.8216 171.617 80.04 173.415Z" fill="black"/>
<path d="M50.9558 187.681L48.5977 183.631" stroke="black" stroke-width="0.48" stroke-miterlimit="10"/>
<path d="M40.0498 165.907L43.7246 173.297" stroke="black" stroke-width="0.48" stroke-miterlimit="10"/>
</g>
<defs>
<clipPath id="clip0_55_785">
<rect width="400" height="400" fill="white"/>
</clipPath>
</defs>
</svg>
