<svg width="385" height="400" viewBox="0 0 385 400" fill="none" xmlns="http://www.w3.org/2000/svg">
<path d="M301.159 319.693C285.792 319.733 283.775 321.367 279.096 337.561C279.52 320.722 278.068 318.544 263.446 313.885C278.814 313.845 280.831 312.211 285.509 296.017C285.086 312.856 286.538 315.034 301.159 319.693Z" fill="#4251D6" stroke="black" stroke-width="0.49" stroke-miterlimit="10"/>
<path d="M46.5863 53.4632C31.8237 57.6984 30.3314 59.8361 30.2507 76.6759C26.0357 60.3605 24.0593 58.6664 8.71191 58.1824C23.4744 53.9472 24.9668 51.8095 25.0475 34.9697C29.2625 51.2851 31.2389 52.9792 46.5863 53.4632Z" fill="#4251D6" stroke="black" stroke-width="0.49" stroke-miterlimit="10"/>
<path d="M366.724 59.5139C347.182 59.5542 344.6 61.6516 338.651 82.2425C339.175 60.8046 337.36 58.0417 318.726 52.1124C338.268 52.0721 340.849 49.9747 346.799 29.3838C346.274 50.8217 348.089 53.5847 366.724 59.5139Z" fill="#4251D6" stroke="black" stroke-width="0.49" stroke-miterlimit="10"/>
<path d="M31.9452 233.418C20.7119 236.584 19.5624 238.197 19.4414 251.004C16.2953 238.58 14.8029 237.29 3.12598 236.866C14.3592 233.7 15.5088 232.087 15.6298 219.28C18.7759 231.703 20.2683 232.994 31.9452 233.418Z" fill="#4251D6" stroke="black" stroke-width="0.49" stroke-miterlimit="10"/>
<path d="M314.813 90.9554C316.205 104.81 250.56 122.719 168.216 130.947C85.8729 139.176 17.9894 134.618 16.5979 120.763C15.2063 106.908 80.8512 88.9991 163.195 80.7708C245.538 72.5425 313.422 77.1004 314.813 90.9554Z" fill="black" stroke="black" stroke-width="0.49" stroke-miterlimit="10"/>
<path d="M314.813 90.955C314.934 92.2054 314.511 93.4759 313.583 94.7667C298.336 84.7838 237.491 82.2024 165.615 89.4021C90.6324 96.9044 29.5252 112.413 20.228 125.603C18.0096 124.13 16.7794 122.537 16.5979 120.783C15.2063 106.907 80.8512 88.9988 163.195 80.7705C245.558 72.522 313.442 77.0798 314.813 90.9348V90.955Z" fill="#52BD66" stroke="black" stroke-width="0.49" stroke-miterlimit="10"/>
<path d="M220.994 57.7393C218.594 31.3604 192.78 12.1408 163.316 14.8231C133.871 17.5054 111.929 41.0609 114.329 67.4398C115.942 85.2678 128.265 99.8085 145.165 106.544L148.291 121.791C154.281 123.102 164.989 124.473 176.767 122.638C188.101 120.863 197.6 117.858 201.291 113.905C200.524 109.59 199.758 105.274 198.992 100.958C213.633 91.1768 222.567 75.0833 220.994 57.7595V57.7393Z" fill="#F8D608" stroke="black" stroke-width="0.49" stroke-miterlimit="10"/>
<path d="M128.123 46.0226C129.01 46.2445 125.219 55.1786 127.458 67.3799C129.857 80.3879 137.4 87.749 136.654 88.2733C135.827 88.8582 125.199 80.6501 123.021 68.0253C121.004 56.3282 127.135 45.7806 128.103 46.0226H128.123Z" fill="white"/>
<path opacity="0.34" d="M191.692 79.319C200.186 66.4419 196.286 48.8883 182.981 40.112C169.677 31.3358 152.005 34.6602 143.511 47.5374C135.017 60.4145 138.917 77.9681 152.221 86.7443C165.526 95.5206 183.198 92.1962 191.692 79.319Z" fill="white"/>
<path d="M162.488 61.2889C164.283 61.2083 165.795 61.773 166.965 62.7612C166.3 62.1965 168.256 59.736 168.72 59.4134C170.575 58.1227 173.096 59.3125 174.548 60.6839C176.061 62.0956 176.686 64.1527 176.827 66.1694C177.17 70.5054 175.718 75.2649 173.398 78.9152C172.249 80.7505 169.446 78.8951 170.595 77.0598C172.733 73.6717 176.182 63.8704 170.636 62.3175C169.91 64.0519 169.547 65.8669 169.466 67.7425C169.526 68.3475 169.547 68.9525 169.466 69.5777C169.204 71.7558 166.219 71.534 166.118 69.3962C166.118 69.0332 166.118 68.6702 166.118 68.3072C165.937 66.0484 164.424 63.951 161.802 64.7577C157.365 66.1291 160.33 73.0667 161.641 75.5675C164.202 80.3471 169.022 83.3117 171.866 87.8897C174.871 92.7097 174.205 99.0423 173.862 104.467C173.398 111.748 172.451 119.048 173.54 126.309C173.862 128.446 170.575 129.132 170.252 126.974C169.143 119.512 170.01 112.07 170.494 104.608C170.736 101.019 171.039 97.2071 170.494 93.6374C170.01 90.3703 167.913 87.8897 165.674 85.5906C161.258 81.0328 156.66 76.1523 156.176 69.4567C155.873 65.4636 158.112 61.4704 162.448 61.2688L162.488 61.2889Z" fill="white"/>
<path d="M203.63 144.197L203.186 144.257L180.922 147.182L172.935 148.23L158.939 150.066L154.22 150.691L152.586 150.893L152.102 147.646L150.126 134.577L147.988 120.379H148.15C156.822 125.925 193.304 121.468 201.23 113.865L202.763 133.125L203.63 144.197Z" fill="white" stroke="black" stroke-width="0.49" stroke-miterlimit="10"/>
<path d="M150.287 134.133L202.379 127.498" stroke="black" stroke-width="0.49" stroke-miterlimit="10"/>
<path d="M151.215 142.826L202.924 135.929" stroke="black" stroke-width="0.49" stroke-miterlimit="10"/>
<path d="M251.404 51.8423L230.114 56.8984L231.098 61.0386L252.387 55.9824L251.404 51.8423Z" fill="#F8D608"/>
<path d="M214.01 0.00403653L206.542 18.6943L210.494 20.2732L217.962 1.58295L214.01 0.00403653Z" fill="#F8D608"/>
<path d="M241.377 24.531L220.55 35.4053L222.519 39.1774L243.346 28.3031L241.377 24.531Z" fill="#F8D608"/>
<path d="M82.0146 63.596L81.5713 67.8281L103.334 70.1078L103.777 65.8756L82.0146 63.596Z" fill="#F8D608"/>
<path d="M110.787 4.82894L107.071 6.90234L116.878 24.4785L120.594 22.4051L110.787 4.82894Z" fill="#F8D608"/>
<path d="M88.6386 32.1702L87.1699 36.1641L109.221 44.273L110.69 40.2792L88.6386 32.1702Z" fill="#F8D608"/>
<path d="M118.988 259.878C117.879 261.975 115.64 263.387 113.119 263.367C109.449 263.326 106.525 260.342 106.565 256.691C106.565 255.481 106.908 254.332 107.513 253.384C111.224 255.723 115.035 257.881 119.008 259.898L118.988 259.878Z" fill="#52BD66" stroke="black" stroke-width="0.49" stroke-miterlimit="10"/>
<path d="M120.803 270.345C120.763 273.995 117.778 276.939 114.128 276.899C110.478 276.859 107.533 273.874 107.574 270.224C107.614 266.573 110.599 263.629 114.249 263.669C117.899 263.71 120.844 266.694 120.803 270.345Z" fill="#F8D608" stroke="black" stroke-width="0.49" stroke-miterlimit="10"/>
<path d="M121.832 283.292C121.791 286.942 118.807 289.887 115.156 289.846C111.506 289.806 108.562 286.821 108.602 283.171C108.642 279.521 111.627 276.576 115.277 276.617C118.928 276.657 121.872 279.642 121.832 283.292Z" fill="#F8D608" stroke="black" stroke-width="0.49" stroke-miterlimit="10"/>
<path d="M122.86 296.824C122.82 300.475 119.835 303.419 116.185 303.379C112.534 303.338 109.59 300.354 109.63 296.703C109.671 293.053 112.655 290.109 116.306 290.149C119.956 290.189 122.9 293.174 122.86 296.824Z" fill="#F8D608" stroke="black" stroke-width="0.49" stroke-miterlimit="10"/>
<path d="M123.021 310.337C122.981 313.987 119.996 316.932 116.346 316.891C112.696 316.851 109.751 313.866 109.791 310.216C109.832 306.566 112.817 303.621 116.467 303.662C120.117 303.702 123.062 306.687 123.021 310.337Z" fill="#F8D608" stroke="black" stroke-width="0.49" stroke-miterlimit="10"/>
<path d="M124.03 323.869C123.99 327.519 121.005 330.464 117.355 330.424C113.704 330.383 110.76 327.398 110.8 323.748C110.841 320.098 113.825 317.153 117.476 317.194C121.126 317.234 124.07 320.219 124.03 323.869Z" fill="#F8D608" stroke="black" stroke-width="0.49" stroke-miterlimit="10"/>
<path d="M125.058 336.816C125.018 340.467 122.033 343.411 118.383 343.371C114.733 343.331 111.788 340.346 111.829 336.695C111.869 333.045 114.854 330.101 118.504 330.141C122.154 330.181 125.099 333.166 125.058 336.816Z" fill="#F8D608" stroke="black" stroke-width="0.49" stroke-miterlimit="10"/>
<path d="M129.112 353.394C129.071 358.718 124.715 362.973 119.391 362.933C114.067 362.893 109.812 358.536 109.852 353.212C109.892 347.888 114.248 343.633 119.573 343.673C124.897 343.713 129.152 348.07 129.112 353.394Z" fill="black" stroke="black" stroke-width="0.49" stroke-miterlimit="10"/>
<path d="M314.773 92.125C314.188 107.271 308.118 265.605 187.557 273.49C69.6383 281.214 24.0398 143.955 17.4048 123.344C17.3039 123.042 17.2232 122.759 17.1426 122.517C23.8583 135.021 89.4023 138.853 168.216 130.967C248.241 122.961 312.494 105.839 314.773 92.1452V92.125Z" fill="#52BD66" stroke="black" stroke-width="0.49" stroke-miterlimit="10"/>
<path d="M212.363 393.97L184.713 396.208L174.791 273.792C178.945 273.893 183.181 273.792 187.517 273.51C192.68 273.167 197.661 272.542 202.42 271.675L212.343 393.97H212.363Z" fill="black" stroke="black" stroke-width="0.49" stroke-miterlimit="10"/>
<path d="M147.363 399.496C147.363 399.496 154.704 364.869 199.677 364.143C242.291 363.457 252.698 398.427 252.698 398.427L147.363 399.496Z" fill="#52BD66" stroke="black" stroke-width="0.49" stroke-miterlimit="10"/>
<path d="M234.87 380.337C232.026 377.17 228.215 375.012 224.181 373.722C223.173 373.399 222.044 374.105 221.781 375.093C221.499 376.142 222.144 377.19 223.153 377.493C226.501 378.562 229.566 380.316 231.966 382.938C234.225 385.399 235.717 388.706 236.12 392.013C236.241 393.062 236.927 393.97 238.077 393.97C239.045 393.97 240.154 393.062 240.033 392.013C239.509 387.637 237.835 383.604 234.87 380.316V380.337Z" fill="white"/>
<path d="M301.442 117.878C301.16 137.945 297.106 157.528 289.16 175.961C288.172 178.26 291.621 180.095 292.629 177.776C300.878 158.677 305.052 138.489 305.355 117.697C305.395 115.176 301.483 115.358 301.442 117.878Z" fill="white"/>
<path d="M287.93 184.048C285.409 184.048 285.409 187.96 287.93 187.96C290.451 187.96 290.451 184.048 287.93 184.048Z" fill="white"/>
<path d="M85.6106 214.016C64.5155 195.261 51.9109 169.567 41.686 143.733C40.7583 141.393 37.3299 143.289 38.2374 145.608C48.5833 171.725 61.4299 197.741 82.767 216.698C84.6426 218.372 87.5063 215.69 85.6106 214.016Z" fill="white"/>
<path d="M99.1428 321.408C93.7984 323.445 86.1953 326.45 77.8864 328.93C57.7795 334.961 33.5988 338.046 27.4074 317.475C22.0227 299.607 34.3248 279.44 45.8606 266.875C57.356 254.372 71.5336 244.732 86.155 236.12C90.1885 239.871 94.4236 243.441 98.8403 246.809C86.155 254.089 73.7319 261.934 62.9222 271.897C53.3225 280.71 39.3667 296.844 42.0086 311.284C43.8841 321.509 60.8248 318.181 74.8613 313.684C78.6931 312.474 82.3434 311.163 85.3886 309.993C88.3129 308.884 90.6927 307.916 92.185 307.351C101.543 303.782 108.541 317.818 99.1428 321.388V321.408Z" fill="black"/>
<path d="M85.1464 302.935C85.1464 302.935 75.0627 298.236 74.8207 305.779C74.6392 311.526 77.9265 323.365 79.4995 328.669C80.2256 331.129 82.202 333.085 84.7431 333.509C86.3766 333.771 90.1681 332.077 91.7815 330.262C96.1175 332.198 102.208 336.413 112.09 335.384C119.471 334.598 127.074 332.057 133.246 327.882C136.412 325.724 139.134 323.062 140.445 319.392C141.171 317.355 141.534 315.056 141.03 312.918C140.768 311.849 140.304 310.861 139.578 310.034C139.377 309.792 137.844 308.158 137.844 308.158C137.844 308.158 142.26 297.591 131.068 295.413C131.068 295.413 136.714 278.391 114.571 286.761C113.24 287.265 110.618 281.416 104.729 279.823C103.862 279.581 97.751 278.048 92.3663 281.114C85.9531 284.764 82.7465 293.718 85.1666 302.955L85.1464 302.935Z" fill="white" stroke="black" stroke-width="0.49" stroke-miterlimit="10"/>
<path d="M130.846 295.554L122.638 299.486" stroke="black" stroke-width="0.49" stroke-miterlimit="10"/>
<path d="M137.823 308.138L128.97 311.526" stroke="black" stroke-width="0.49" stroke-miterlimit="10"/>
<path d="M114.55 286.74L102.43 291.822" stroke="black" stroke-width="0.49" stroke-miterlimit="10"/>
<path d="M85.1465 302.935L87.2036 311.949" stroke="black" stroke-width="0.49" stroke-miterlimit="10"/>
<path d="M90.3701 323.646L91.7415 330.241" stroke="black" stroke-width="0.49" stroke-miterlimit="10"/>
<path d="M118.483 293.799C119.391 296.018 115.922 297.429 115.014 295.191C114.107 292.952 117.576 291.561 118.483 293.799Z" fill="black"/>
<path d="M123.666 307.856C124.573 310.074 121.104 311.486 120.197 309.247C119.289 307.009 122.758 305.617 123.666 307.856Z" fill="black"/>
<path d="M128.688 321.953C129.596 324.171 126.127 325.583 125.219 323.344C124.312 321.106 127.781 319.714 128.688 321.953Z" fill="black"/>
<path d="M361.379 202.965C361.056 204.175 360.754 205.385 360.451 206.615C360.411 206.797 360.391 206.918 360.351 207.059C359.584 210.185 358.878 213.371 358.193 216.538C358.193 216.578 358.193 216.598 358.193 216.639C354.643 232.551 351.094 248.765 340.99 261.834C330.967 274.781 311.828 283.473 296.117 275.548C280.629 267.723 273.53 249.995 269.98 231.462C274.962 225.411 279.378 218.978 283.311 212.282C283.956 217.506 284.783 222.709 285.893 227.872C288.192 238.52 291.378 252.839 300.534 259.898C312.292 268.973 326.913 256.53 332.52 246.264C337.763 236.645 340.304 225.875 342.603 215.106C343.249 212.02 343.894 208.975 344.58 205.95C344.58 205.889 344.58 205.829 344.62 205.768C345.124 203.409 345.669 201.09 346.294 198.77C347.464 194.293 351.295 192.74 354.845 193.325C355.571 193.446 356.277 193.668 356.962 193.95C360.169 195.342 362.549 198.569 361.419 202.945L361.379 202.965Z" fill="black"/>
<path d="M352.888 163.961C352.888 163.961 355.53 126.409 343.49 128.466C334.153 130.06 337.238 166.24 337.238 166.24C337.238 166.24 315.901 178.28 334.677 200.948C335 201.331 333.83 205.99 333.911 206.877C334.153 209.317 335.322 211.354 337.46 212.625C345.285 217.304 355.571 218.937 363.9 214.642C365.735 213.694 366.925 211.858 367.046 209.801V205.102C367.046 205.102 377.755 203.307 377.856 192.014C377.856 192.014 393.707 168.781 372.773 165.514C372.693 164.344 372.35 161.4 370.172 158.758C369.708 158.193 365.957 153.797 360.854 154.664C356.76 155.349 353.413 159.141 352.888 163.981V163.961Z" fill="white" stroke="black" stroke-width="0.49" stroke-miterlimit="10"/>
<path d="M372.793 165.494C372.592 170.677 371.382 176.888 367.752 180.821C365.775 182.959 363.073 183.987 360.169 183.725C356.498 183.402 353.07 182.031 352.041 178.26C350.609 172.956 352.061 166.462 353.655 161.359" fill="white"/>
<path d="M372.793 165.494C372.592 170.677 371.382 176.888 367.752 180.821C365.775 182.959 363.073 183.987 360.169 183.725C356.498 183.402 353.07 182.031 352.041 178.26C350.609 172.956 352.061 166.462 353.655 161.359" stroke="black" stroke-width="0.49" stroke-miterlimit="10"/>
<path d="M378.46 191.005C377.895 191.469 375.536 192.861 372.914 192.942C372.269 192.962 370.05 192.962 368.013 191.57C364.141 188.908 364.524 183.644 364.545 183.402" fill="white"/>
<path d="M378.46 191.005C377.895 191.469 375.536 192.861 372.914 192.942C372.269 192.962 370.05 192.962 368.013 191.57C364.141 188.908 364.524 183.644 364.545 183.402" stroke="black" stroke-width="0.49" stroke-miterlimit="10"/>
<path d="M337.259 166.24C340.385 165.514 343.591 165.05 346.778 164.828C353.252 164.365 364.243 163.638 365.412 172.109C366.562 180.418 353.857 182.253 345.064 182.918C345.064 182.918 357.305 183.201 357.104 196.874" fill="white"/>
<path d="M337.259 166.24C340.385 165.514 343.591 165.05 346.778 164.828C353.252 164.365 364.243 163.638 365.412 172.109C366.562 180.418 353.857 182.253 345.064 182.918C345.064 182.918 357.305 183.201 357.104 196.874" stroke="black" stroke-width="0.49" stroke-miterlimit="10"/>
<path d="M367.328 204.8C367.328 204.8 365.695 207.159 358.717 207.079L367.328 204.8Z" fill="white"/>
<path d="M367.328 204.8C367.328 204.8 365.695 207.159 358.717 207.079" stroke="black" stroke-width="0.49" stroke-miterlimit="10"/>
<path d="M345.103 206.03C345.103 206.03 340.283 205.748 334.677 200.948L345.103 206.03Z" fill="white"/>
<path d="M345.103 206.03C345.103 206.03 340.283 205.748 334.677 200.948" stroke="black" stroke-width="0.49" stroke-miterlimit="10"/>
<path d="M75.5271 206.252C78.0883 224.967 95.3919 238.056 114.168 235.475C132.944 232.893 146.073 215.63 143.491 196.915C140.93 178.199 123.626 165.111 104.85 167.692C86.0746 170.273 72.9456 187.537 75.5271 206.252Z" fill="#ED4FAC"/>
<path d="M209.015 194.535C211.577 213.251 228.88 226.339 247.656 223.758C266.432 221.176 279.561 203.913 276.979 185.198C274.418 166.482 257.115 153.394 238.339 155.975C219.563 158.557 206.434 175.82 209.015 194.535Z" fill="#ED4FAC"/>
<path d="M179.268 163.739L179.672 171.403C179.672 171.403 167.228 171.342 167.511 177.796C167.793 184.249 181.769 180.66 181.769 180.66" fill="#EC461E"/>
<path d="M179.268 163.739L179.672 171.403C179.672 171.403 167.228 171.342 167.511 177.796C167.793 184.249 181.769 180.66 181.769 180.66" stroke="black" stroke-width="0.49" stroke-miterlimit="10"/>
<path d="M156.055 149.803C154.946 143.35 152.324 137.562 148.634 132.701C146.919 132.842 145.185 132.984 143.491 133.084C123.687 134.496 105.133 135.141 88.6357 135.041C87.2643 135.041 85.9131 135.041 84.5619 135C79.3183 143.007 76.9789 152.949 78.7335 163.114C82.4241 184.451 102.692 198.79 124.07 195.099C129.938 194.091 135.303 191.832 139.881 188.605C151.941 180.175 158.738 165.251 156.075 149.783L156.055 149.803Z" fill="white" stroke="black" stroke-width="0.49" stroke-miterlimit="10"/>
<path d="M91.6811 186.326L83.4932 196.45" stroke="black" stroke-width="0.49" stroke-miterlimit="10"/>
<path d="M105.677 193.688L103.963 205.385" stroke="black" stroke-width="0.49" stroke-miterlimit="10"/>
<path d="M81.5368 173.278L71.3926 179.026" stroke="black" stroke-width="0.49" stroke-miterlimit="10"/>
<path d="M147.141 155.006C147.141 171.927 133.81 185.842 117.616 185.842C101.422 185.842 89.2404 173.258 88.1514 157.225L117.616 155.006L88.4539 150.085C89.3412 144.358 91.721 139.235 95.1293 135.061L138.731 133.568C143.914 139.114 147.141 146.717 147.141 155.006Z" fill="black" stroke="black" stroke-width="0.57" stroke-miterlimit="10"/>
<path d="M213.311 181.164C218.433 183.423 224.12 184.633 230.07 184.471C251.75 183.947 268.872 165.958 268.368 144.318C268.106 134.012 263.911 124.715 257.195 117.858C255.884 118.161 254.553 118.423 253.202 118.685C237.028 121.973 218.716 124.917 199.012 127.377C197.318 127.599 195.604 127.781 193.89 127.982C191.187 133.468 189.755 139.659 189.917 146.194C190.3 161.884 199.859 175.214 213.331 181.164H213.311Z" fill="white" stroke="black" stroke-width="0.49" stroke-miterlimit="10"/>
<path d="M260.119 169.588L270.102 177.917" stroke="black" stroke-width="0.49" stroke-miterlimit="10"/>
<path d="M247.797 179.51L251.77 190.662" stroke="black" stroke-width="0.49" stroke-miterlimit="10"/>
<path d="M267.541 154.825L278.593 158.476" stroke="black" stroke-width="0.49" stroke-miterlimit="10"/>
<path d="M257.578 145.851C256.489 161.904 243.542 174.469 228.134 174.469C211.94 174.469 198.589 160.533 198.589 143.633C198.589 137.562 200.303 131.875 203.248 127.095L247.152 120.077C252.395 124.695 256.126 131.21 257.276 138.692L228.134 143.633L257.578 145.851Z" fill="black" stroke="black" stroke-width="0.57" stroke-miterlimit="10"/>
<path d="M177.211 191.65C165.534 192.618 157.185 187.173 146.435 187.919C140.405 188.343 134.617 189.977 134.617 196.914C134.597 209.62 144.116 217.868 155.551 222.688C170.334 228.92 187.153 227.972 201.533 220.893C213.653 214.924 226.157 205.001 223.051 190.178C221.64 183.382 216.013 182.595 209.983 183.099C199.254 184.007 187.899 190.763 177.211 191.65Z" fill="white" stroke="black" stroke-width="0.49" stroke-miterlimit="10"/>
<path d="M197.459 186.064C199.113 190.017 200.928 195.483 201.815 202.158C202.844 209.822 202.279 216.316 201.533 220.914" stroke="black" stroke-width="0.49" stroke-miterlimit="10"/>
<path d="M177.211 191.65C178.582 195.825 179.954 201.371 180.438 207.986C181.002 215.609 180.196 222.063 179.228 226.742" stroke="black" stroke-width="0.49" stroke-miterlimit="10"/>
<path d="M154.966 188.484C156.236 192.82 157.547 198.931 157.588 206.312C157.628 212.968 156.62 218.574 155.551 222.688" stroke="black" stroke-width="0.49" stroke-miterlimit="10"/>
</svg>
