<svg width="400" height="400" viewBox="0 0 400 400" fill="none" xmlns="http://www.w3.org/2000/svg">
<g clip-path="url(#clip0_55_983)">
<path d="M233.284 5.09561C233.284 7.50007 235.464 9.46563 238.134 9.46563C240.803 9.46563 242.983 7.51915 242.983 5.09561C242.983 2.67206 240.803 0.725586 238.134 0.725586C235.464 0.725586 233.284 2.67206 233.284 5.09561Z" fill="#4B9BF4" stroke="black" stroke-width="0.76" stroke-miterlimit="10"/>
<path d="M234.996 7.17571C229.005 5.85898 222.893 5.00025 216.759 4.69492C209.628 4.33234 202.374 4.65675 195.426 6.31698C190.006 7.61462 184.769 9.75193 180.225 12.9388C176.232 15.744 172.849 19.3316 170.261 23.4345C167.674 27.4992 165.86 32.0028 164.658 36.64C163.395 41.468 162.743 46.4487 162.519 51.4293C162.274 56.5054 162.478 61.5815 162.967 66.6385C163.436 71.5047 164.169 76.3327 165.106 81.1226C165.942 85.359 166.92 89.5764 168.041 93.7365C168.917 96.9615 169.854 100.167 170.893 103.335C171.484 105.167 172.116 106.98 172.788 108.774C172.808 108.85 172.992 109.556 173.094 109.575L249.524 127.914C249.972 128.029 252.315 125.319 252.621 125.014C255.311 122.418 257.898 119.747 260.425 117.018C263.97 113.163 267.373 109.156 270.593 105.015C274.281 100.263 277.724 95.3013 280.781 90.1298C283.898 84.8247 286.628 79.2906 288.625 73.4703C290.541 67.898 291.784 62.0586 291.784 56.1428C291.784 50.3225 290.561 44.5213 287.933 39.2734C284.876 33.1859 280.149 28.0717 274.709 23.9497C267.271 18.3011 258.591 14.3509 249.768 11.2977C244.96 9.63743 240.049 8.22528 235.037 7.13755L234.996 7.17571Z" fill="#E75688" stroke="black" stroke-width="0.76" stroke-miterlimit="10"/>
<path d="M236.952 7.27148L213.071 119.575" stroke="black" stroke-width="0.76" stroke-miterlimit="10"/>
<path d="M203.923 4.46582L189.252 113.983" stroke="black" stroke-width="0.76" stroke-miterlimit="10"/>
<path d="M271.143 21.6406L237.033 124.975" stroke="black" stroke-width="0.76" stroke-miterlimit="10"/>
<path d="M267.557 117.552C267.557 129.727 263.441 140.967 256.513 150.031C236.32 133.658 212.195 122.971 185.523 120.013C175.6 118.907 165.779 118.945 156.121 119.994C156.059 119.174 156.039 118.353 156.039 117.533C156.039 87.5149 180.979 63.2031 211.788 63.2031C242.596 63.2031 267.557 87.5149 267.557 117.533V117.552Z" fill="#46A831" stroke="black" stroke-width="0.76" stroke-miterlimit="10"/>
<path d="M202.455 334.488C202.455 334.488 193.897 325.709 194.427 344.163C194.997 363.952 203.087 351.033 203.087 351.033L205.043 353.914C205.043 353.914 188.335 376.127 206.571 383.207C224.807 390.286 226.58 367.158 226.05 353.074C225.521 338.972 228.108 323.706 202.435 334.488H202.455Z" fill="#4B9BF4" stroke="black" stroke-width="0.76" stroke-miterlimit="10"/>
<path d="M202.455 334.487C202.455 334.487 204.35 337.502 204.167 342.464L202.455 334.487Z" fill="black"/>
<path d="M202.455 334.487C202.455 334.487 204.35 337.502 204.167 342.464" stroke="black" stroke-width="0.76" stroke-miterlimit="10"/>
<path d="M203.922 347.75C203.922 347.75 204.106 348.838 203.066 351.051L203.922 347.75Z" fill="black"/>
<path d="M203.922 347.75C203.922 347.75 204.106 348.838 203.066 351.051" stroke="black" stroke-width="0.76" stroke-miterlimit="10"/>
<path d="M204.981 353.876C205.185 352.12 206.021 350.86 206.999 349.715C208.038 348.609 209.22 347.635 211.013 347.12L211.135 347.216L208.18 350.631L205.104 353.971L204.981 353.876Z" fill="black"/>
<path d="M205.043 353.857C206.204 352.731 207.447 352.349 208.731 352.158C210.035 352.044 211.339 352.101 212.765 352.902V353.055L208.935 353.608L205.063 354.009V353.857H205.043Z" fill="black"/>
<path d="M201.375 373.111C202.394 374.256 203.453 375.23 204.493 376.126C205.572 376.985 206.673 377.729 207.875 378.226C209.077 378.76 210.34 379.18 211.746 379.39C213.132 379.638 214.619 379.733 216.229 379.886L216.27 380.019C215.516 380.153 214.762 380.325 214.008 380.439C213.234 380.458 212.48 380.611 211.706 380.535C210.157 380.535 208.629 380.134 207.223 379.542C204.411 378.264 202.353 375.859 201.232 373.169L201.375 373.13V373.111Z" fill="white"/>
<path d="M191.228 337.236C177.8 340.614 163.598 340.423 149.804 340.27C138.067 340.137 121.929 338.896 120.34 325.061C119.342 316.416 125.047 306.665 131.995 299.203L116.632 296.513C108.114 307.218 102.878 320.443 107.911 333.286C113.351 347.159 127.512 352.445 142.203 353.285C159.971 354.296 178.636 354.144 195.914 349.812C204.737 347.598 200.051 335.041 191.248 337.255L191.228 337.236Z" fill="black" stroke="black" stroke-width="0.76" stroke-miterlimit="10"/>
<path d="M171.321 306.073C149.091 322.828 129.815 343.113 113.922 365.593C108.869 372.749 121.115 379.486 126.148 372.368C143.549 347.732 164.556 326.473 190.25 309.394L171.321 306.073Z" fill="black" stroke="black" stroke-width="0.76" stroke-miterlimit="10"/>
<path d="M121.42 383.207C117.773 390.306 114.39 394.466 111.212 396.527C102.409 402.232 95.0129 391.889 86.6588 383.207C78.162 374.39 66.8738 360.326 70.5822 351.166C71.8251 348.094 74.7796 345.556 80.1385 343.972C101.35 337.694 106.648 371.451 106.648 371.451L107.85 369.925C107.463 369.543 106.668 367.864 106.648 366.318C106.607 364.448 108.033 362.673 109.541 362.158C113.127 360.918 118.18 366.433 120.89 369.391C123.397 372.119 129.285 378.55 127.146 381.604C126.718 382.214 125.516 383.378 121.441 383.188L121.42 383.207Z" fill="#4B9BF4" stroke="black" stroke-width="0.76" stroke-miterlimit="10"/>
<path d="M121.441 383.207C121.441 383.207 118.608 381.718 114.248 377.119" stroke="black" stroke-width="0.76" stroke-miterlimit="10"/>
<path d="M110.132 372.329C110.132 372.329 108.767 371.451 107.707 369.543" stroke="black" stroke-width="0.76" stroke-miterlimit="10"/>
<path d="M92.3437 349.506C91.1008 349.01 89.9394 348.667 88.8391 348.361C87.7388 348.094 86.6588 347.903 85.5993 347.884C84.5397 347.846 83.4598 347.903 82.3391 348.152C81.2185 348.361 80.0367 348.705 78.7122 349.01L78.6104 348.896C79.6291 348.19 80.6887 347.503 81.8909 347.083C83.0523 346.587 84.3564 346.415 85.64 346.434C88.2278 346.529 90.6525 347.713 92.4456 349.411L92.3234 349.506H92.3437Z" fill="white"/>
<path d="M111.11 396.451C110.927 396.699 110.703 396.928 110.438 397.138C108.522 398.626 105.12 398.34 102.939 397.596C96.1134 395.21 91.3455 388.073 86.6794 383.226C78.1826 374.41 67.2 359.83 70.6028 351.186C73.7203 343.247 87.8815 359.601 90.7342 362.903C97.5397 370.822 104.101 379.314 109.297 388.207C110.641 390.497 113.025 393.893 111.11 396.47V396.451Z" fill="white" stroke="black" stroke-width="0.76" stroke-miterlimit="10"/>
<path d="M72.1914 363.112L85.1098 356.604" stroke="black" stroke-width="0.76" stroke-miterlimit="10"/>
<path d="M77.5303 372.596L92.5473 365.497" stroke="black" stroke-width="0.76" stroke-miterlimit="10"/>
<path d="M85.2119 382.386L99.6177 374.523" stroke="black" stroke-width="0.76" stroke-miterlimit="10"/>
<path d="M94.4824 391.355L107.034 384.79" stroke="black" stroke-width="0.76" stroke-miterlimit="10"/>
<path d="M263.827 375.135C263.95 376.222 265.783 376.222 265.661 375.135C265.131 370.402 268.229 365.937 273.098 364.486C276.929 363.341 280.78 364.677 281.921 368.475C282.431 370.154 282.451 371.738 281.962 373.284C281.962 373.284 281.942 373.284 281.921 373.284C280.25 373.265 278.641 373.684 277.133 374.314C275.971 374.791 274.341 375.555 274.097 376.852C273.832 378.36 275.686 379.352 277.031 379.543C278.702 379.772 280.23 378.894 281.31 377.768C282.105 376.948 282.736 376.051 283.185 375.116C283.429 375.154 283.674 375.192 283.918 375.249C287.26 376.051 290.133 378.665 290.601 381.947C291.029 384.848 288.625 386.585 285.793 387.119C285.059 386.165 284.142 385.344 283.083 384.772C280.964 383.646 278.722 384.161 277.887 386.375C277.785 386.642 277.887 387.023 278.131 387.214C280.006 388.646 282.471 389.161 284.876 388.951C285.609 390.191 286.017 391.642 285.793 393.035C285.426 395.42 283.185 397.691 280.678 398.206C275.605 399.237 270.633 394.18 269.145 390.153C268.758 389.123 267.006 389.562 267.393 390.611C268.636 393.951 271.265 396.966 274.566 398.702C277.337 400.172 280.76 400.611 283.531 398.931C286.363 397.214 288.116 394.161 287.565 391.012C287.423 390.21 287.137 389.409 286.771 388.626C287.341 388.474 287.912 388.302 288.442 388.073C292.17 386.451 293.291 382.902 291.742 379.447C290.357 376.375 287.28 374.142 283.796 373.494C284.183 372.081 284.224 370.593 283.938 369.066C283.49 366.624 282.064 364.276 279.619 363.151C277.398 362.12 274.769 362.177 272.446 362.902C266.945 364.639 263.236 369.696 263.827 375.154V375.135ZM283.551 387.272C282.227 387.214 280.943 386.909 279.945 386.317C280.841 385.23 282.655 386.413 283.551 387.272ZM281.147 375.039C281.086 375.154 281.025 375.268 280.943 375.383C280.271 376.394 279.232 377.654 277.866 377.845C277.235 377.94 276.644 377.73 276.114 377.387C275.727 377.138 275.829 377.1 276.114 376.814C276.929 376.013 278.376 375.612 279.456 375.306C280.006 375.154 280.556 375.077 281.106 375.039H281.147Z" fill="black"/>
<path d="M262.442 378.493H230.289" stroke="black" stroke-width="0.76" stroke-miterlimit="10" stroke-linecap="round"/>
<path d="M261.913 386.604H241.761" stroke="black" stroke-width="0.76" stroke-miterlimit="10" stroke-linecap="round"/>
<path d="M29.9122 189.724C32.2555 192.853 34.9859 195.888 38.0626 198.75C40.8745 194.304 43.8698 189.991 46.9873 185.869C45.3165 184.113 43.8086 182.3 42.4842 180.43C33.3762 167.664 28.0173 150.68 28.9138 134.707C28.9138 134.536 28.9342 134.383 28.9546 134.23C29.1176 131.768 29.4028 129.326 29.8511 126.96C29.9122 126.616 29.9937 126.253 30.0549 125.91C30.5031 123.811 31.0533 121.769 31.7461 119.765C31.9702 119.097 32.0925 118.448 32.1536 117.838C32.174 117.8 32.174 117.781 32.174 117.742C32.3166 115.185 30.9718 113.162 28.9953 111.903C28.7101 111.712 28.4044 111.56 28.0784 111.407C24.0236 109.46 18.135 110.338 16.3215 115.605C15.7306 117.361 15.2008 119.155 14.7525 120.948C14.6507 121.464 14.508 121.96 14.4265 122.475C13.9171 124.727 13.53 127.017 13.2855 129.345C13.2855 129.402 13.2651 129.478 13.2651 129.536C10.8811 150.336 17.6256 173.16 29.9937 189.724H29.9122Z" fill="black" stroke="black" stroke-width="0.76" stroke-miterlimit="10"/>
<path d="M27.0186 93.4123C27.0186 93.4123 42.5246 62.1352 53.8944 67.9555C62.8395 72.5545 41.5262 100.626 41.5262 100.626L27.0186 93.3932V93.4123Z" fill="white" stroke="black" stroke-width="0.76" stroke-miterlimit="10"/>
<path d="M14.8748 90.0723C14.8748 90.0723 10.0049 56.467 22.8214 58.2417C35.6379 59.9974 28.6082 92.7057 28.6082 92.7057L14.8748 90.0723Z" fill="white" stroke="black" stroke-width="0.76" stroke-miterlimit="10"/>
<path d="M44.9701 103.545C44.9701 103.545 51.1644 120.738 34.7822 125.242C34.7822 125.242 39.9576 132.36 30.3402 133.562C20.7228 134.764 1.81389 130.242 8.53795 121.902C8.53795 121.902 -7.72205 109.136 6.78562 93.0107L44.9701 103.545Z" fill="white" stroke="black" stroke-width="0.76" stroke-miterlimit="10"/>
<path d="M34.803 125.242C34.803 125.242 29.546 126.349 25.4912 125.834" stroke="black" stroke-width="0.76" stroke-miterlimit="10"/>
<path d="M16.6275 124.116C16.6275 124.116 12.9802 123.811 8.55859 121.902" stroke="black" stroke-width="0.76" stroke-miterlimit="10"/>
<path d="M7.2948 84.2706C9.63804 84.0225 12.2869 85.1866 13.8966 86.9041C16.2806 89.423 16.8511 93.1824 16.8104 96.4456C16.7696 99.2699 15.9546 102.59 12.7148 103.564C8.06909 104.938 5.07383 101.083 3.62713 97.4952C2.28232 94.1556 1.63029 89.8047 3.62713 86.5606C4.52368 85.1103 5.84811 84.4233 7.2948 84.2706Z" fill="white" stroke="black" stroke-width="0.76" stroke-miterlimit="10"/>
<path d="M45.0717 103.755C40.8946 95.3203 25.4089 91.1984 19.6425 89.8626C16.3416 89.0993 12.8573 88.7939 10.7586 91.2938C3.87154 99.5377 25.2663 109.289 25.2663 109.289C25.2663 109.289 20.967 115.358 26.55 119.06" fill="white"/>
<path d="M45.0717 103.755C40.8946 95.3203 25.4089 91.1984 19.6425 89.8626C16.3416 89.0993 12.8573 88.7939 10.7586 91.2938C3.87154 99.5377 25.2663 109.289 25.2663 109.289C25.2663 109.289 20.967 115.358 26.55 119.06" stroke="black" stroke-width="0.76" stroke-miterlimit="10"/>
<path d="M312.425 238.634C313.77 243.481 314.931 248.424 315.889 253.442C317.743 252.774 319.536 252.068 321.268 251.286C340.666 242.431 358.413 225.581 367.155 206.326C367.195 206.269 367.216 206.212 367.236 206.155C368.214 203.998 369.07 201.823 369.783 199.628C369.966 199.132 370.129 198.655 370.272 198.159C370.822 196.346 371.311 194.552 371.698 192.758C372.819 187.32 368.153 183.866 363.609 183.713C363.263 183.713 362.916 183.713 362.57 183.751C360.186 183.961 357.945 185.106 356.763 187.377V187.415C356.763 187.415 356.722 187.453 356.702 187.491C356.437 188.045 356.213 188.674 356.07 189.361C355.642 191.422 355.051 193.464 354.358 195.506C354.236 195.85 354.114 196.193 353.971 196.537C353.136 198.827 352.137 201.059 350.996 203.292C350.935 203.426 350.854 203.559 350.793 203.693C343.274 218.062 329.744 230.447 315.176 237.451C314.299 237.871 313.403 238.271 312.486 238.634H312.425Z" fill="black" stroke="black" stroke-width="0.76" stroke-miterlimit="10"/>
<path d="M374.042 171.214C374.042 171.214 377.445 138.181 364.995 137.838C355.194 137.57 358.251 170.584 358.251 170.584L374.042 171.214Z" fill="white" stroke="black" stroke-width="0.76" stroke-miterlimit="10"/>
<path d="M385.839 173.981C385.839 173.981 407.377 148.333 395.824 143.944C384.27 139.555 373.084 169.897 373.084 169.897L385.839 173.981Z" fill="white" stroke="black" stroke-width="0.76" stroke-miterlimit="10"/>
<path d="M353.87 171.442C353.87 171.442 339.77 182.873 351.017 194.094C351.017 194.094 343.03 197.643 350.365 203.025C357.721 208.406 375.754 213.272 374.511 203.292C374.511 203.292 394.642 200.124 390.995 180.125L353.85 171.442H353.87Z" fill="white" stroke="black" stroke-width="0.76" stroke-miterlimit="10"/>
<path d="M351.018 194.075C351.018 194.075 354.787 197.396 358.434 198.808" stroke="black" stroke-width="0.76" stroke-miterlimit="10"/>
<path d="M366.687 201.441C366.687 201.441 369.865 202.854 374.531 203.292" stroke="black" stroke-width="0.76" stroke-miterlimit="10"/>
<path d="M395.152 172.645C393.339 171.366 390.527 171.137 388.306 171.805C385.025 172.816 382.58 175.679 380.909 178.389C379.463 180.755 378.423 183.885 380.604 186.155C383.741 189.419 388.245 187.587 391.301 185.278C394.154 183.121 396.965 179.82 396.986 176.213C396.986 174.61 396.252 173.427 395.132 172.645H395.152Z" fill="white" stroke="black" stroke-width="0.76" stroke-miterlimit="10"/>
<path d="M353.666 171.558C361.511 166.462 376.507 170.107 381.989 171.634C385.126 172.512 388.183 173.848 388.611 176.882C390.037 186.862 367.216 185.183 367.216 185.183C367.216 185.183 367.624 192.186 361.062 192.702" fill="white"/>
<path d="M353.666 171.558C361.511 166.462 376.507 170.107 381.989 171.634C385.126 172.512 388.183 173.848 388.611 176.882C390.037 186.862 367.216 185.183 367.216 185.183C367.216 185.183 367.624 192.186 361.062 192.702" stroke="black" stroke-width="0.76" stroke-miterlimit="10"/>
<path d="M185.523 120.033C102.084 110.815 24.268 180.736 8.33398 277.449L316.153 331.568L317.926 320.099C330.641 219.074 271.347 129.498 185.544 120.033H185.523ZM264.826 278.327L263.828 284.681L73.1906 252.488C82.2579 198.979 129.775 160.794 181.387 166.481C234.486 172.339 271.856 222.413 264.806 278.327H264.826Z" fill="#F6D117" stroke="black" stroke-width="0.76" stroke-miterlimit="10"/>
<path d="M283.551 308.573L280.107 325.614" stroke="black" stroke-width="0.76" stroke-miterlimit="10"/>
<path d="M243.106 301.397L239.662 318.458" stroke="black" stroke-width="0.76" stroke-miterlimit="10"/>
<path d="M203.984 294.471L200.54 311.531" stroke="black" stroke-width="0.76" stroke-miterlimit="10"/>
<path d="M163.537 287.314L160.094 304.375" stroke="black" stroke-width="0.76" stroke-miterlimit="10"/>
<path d="M122.521 280.044L119.077 297.104" stroke="black" stroke-width="0.76" stroke-miterlimit="10"/>
<path d="M82.0539 272.868L78.6104 289.928" stroke="black" stroke-width="0.76" stroke-miterlimit="10"/>
<path d="M42.9523 265.941L39.5088 283.002" stroke="black" stroke-width="0.76" stroke-miterlimit="10"/>
<path d="M259.548 313.153L257.837 321.683" stroke="black" stroke-width="0.76" stroke-miterlimit="10"/>
<path d="M219.102 305.978L217.37 314.508" stroke="black" stroke-width="0.76" stroke-miterlimit="10"/>
<path d="M179.98 298.669L178.269 307.199" stroke="black" stroke-width="0.76" stroke-miterlimit="10"/>
<path d="M139.534 291.895L137.802 300.425" stroke="black" stroke-width="0.76" stroke-miterlimit="10"/>
<path d="M98.5171 284.624L96.7852 293.154" stroke="black" stroke-width="0.76" stroke-miterlimit="10"/>
<path d="M58.0504 277.468L56.3389 285.998" stroke="black" stroke-width="0.76" stroke-miterlimit="10"/>
<path d="M128.776 143.906C96.8881 152.703 71.2348 176.156 55.2601 202.854C50.7977 210.296 47.0689 218.139 44.1348 226.211C42.8511 229.742 48.8213 231.268 50.1049 227.757C60.0484 200.373 80.0576 174.935 106.444 159.63C113.943 155.279 121.951 151.825 130.427 149.497C134.237 148.448 132.607 142.856 128.776 143.906Z" fill="white"/>
<path d="M43.8695 236.726C39.8962 236.726 39.8758 242.527 43.8695 242.527C47.8631 242.527 47.8631 236.726 43.8695 236.726Z" fill="white"/>
<path d="M303.826 251.458C302.766 247.871 296.939 249.836 297.998 253.405C303.683 272.526 305.15 292.601 302.705 312.295C302.257 315.978 308.308 317.123 308.777 313.421C311.365 292.64 309.816 271.629 303.826 251.458Z" fill="white"/>
<path d="M236.87 136.253C259.284 149.325 269.289 161.786 269.839 162.263C274.199 157.073 278.071 150.699 281.025 143.505C282.146 140.737 283.104 137.97 283.837 135.222C285.875 127.933 286.547 120.91 285.997 114.727C285.08 104.136 280.577 96.0068 272.936 93.2779C259.162 88.3354 240.436 102.839 231.145 125.643C230.228 127.876 229.433 130.089 228.781 132.303C231.532 133.505 234.283 134.764 236.891 136.272L236.87 136.253Z" fill="white" stroke="black" stroke-width="0.76" stroke-miterlimit="10"/>
<path d="M236.87 136.253C246.508 141.482 255.351 148.085 263.379 155.947C266.599 151.749 269.574 146.806 272.059 141.348C272.528 140.318 272.956 139.307 273.363 138.295L257.246 127.494L276.501 128.582C279.68 115.491 277.683 104.919 270.735 102.743C261.606 99.9191 247.404 112.628 239.03 131.12C238.215 132.933 237.481 134.631 236.89 136.272L236.87 136.253Z" fill="black" stroke="black" stroke-width="0.76" stroke-miterlimit="10"/>
<path d="M133.687 94.9572C132.851 97.686 132.158 100.51 131.629 103.43C130.263 111.025 130.141 118.353 131.058 124.898C131.466 124.803 131.894 124.708 132.321 124.65H132.342C138.658 123.429 160.196 118.544 173.359 119.116C176.395 119.25 179.431 119.345 182.426 119.632C183.18 117.113 183.791 114.498 184.26 111.808C188.641 87.7628 180.409 66.3517 165.86 64.0235C157.791 62.745 149.478 67.6111 142.958 76.2939C139.147 81.3509 135.908 87.7438 133.687 94.9572Z" fill="white" stroke="black" stroke-width="0.76" stroke-miterlimit="10"/>
<path d="M143.651 92.7243L160.807 100.968L141.043 102.59C140.839 103.659 140.676 104.747 140.513 105.853C139.657 111.75 139.555 117.475 140.065 122.646C151.271 120.089 162.417 118.887 173.359 119.116C173.828 117.151 174.215 115.071 174.541 112.781C177.373 92.8769 172.075 75.1488 162.662 73.2405C155.51 71.7901 148.052 79.9577 143.651 92.7433V92.7243Z" fill="black" stroke="black" stroke-width="0.76" stroke-miterlimit="10"/>
<path d="M288.463 94.0983L281.678 90.4725C280.598 89.9955 279.66 89.3848 278.601 88.9841C277.602 88.507 276.624 88.0108 275.565 87.6483C274.566 87.1712 273.527 86.8086 272.468 86.4269C271.428 85.988 270.328 85.7209 269.228 85.301L261.811 83.0492L261.729 82.6676C266.885 81.6562 272.366 82.1523 277.236 84.1179C282.065 86.1789 286.12 89.6711 288.809 93.8884L288.463 94.0792V94.0983Z" fill="black"/>
<path d="M179.614 61.6954L171.933 60.3978C170.73 60.2833 169.65 59.997 168.509 59.9398C167.389 59.8062 166.288 59.6344 165.168 59.6344C164.067 59.4818 162.947 59.4627 161.826 59.4436C160.685 59.3482 159.564 59.4436 158.362 59.3864L150.558 59.5963L150.354 59.2719C154.858 56.7147 160.196 55.4553 165.494 55.7988C170.771 56.2377 175.845 58.2605 179.879 61.4092L179.614 61.7145V61.6954Z" fill="black"/>
<path d="M193.612 119.269C192.512 126.502 197.585 133.181 204.961 134.173C212.337 135.165 219.204 130.089 220.304 122.857C221.405 115.624 216.331 108.945 208.955 107.953C201.579 106.961 194.712 112.037 193.612 119.269Z" fill="#765AFF" stroke="black" stroke-width="0.76" stroke-miterlimit="10"/>
<path d="M194.896 165.927C152.82 157.378 150.904 110.548 171.28 122.837C175.213 125.204 178.799 127.226 181.998 128.944C193.999 135.356 207.57 138.867 221.385 139.058C225.5 139.115 230.411 139.115 236.177 139.02C257.409 138.657 233.855 177.606 192.817 165.412L194.875 165.927H194.896Z" fill="#ED6122" stroke="black" stroke-width="0.76" stroke-miterlimit="10"/>
<path d="M195.874 162.11C157.71 154.115 155.387 115.032 173.176 127.398C190.719 139.592 201.783 141.348 201.783 141.348L199.909 140.871C199.909 140.871 210.443 144.497 232.144 142.073C254.129 139.631 231.369 172.453 194.02 161.633L195.895 162.11H195.874Z" fill="white" stroke="black" stroke-width="0.76" stroke-miterlimit="10"/>
<path d="M227.171 142.55L222.566 161.824" stroke="black" stroke-width="0.76" stroke-miterlimit="10"/>
<path d="M206.042 142.149L200.337 163.103" stroke="black" stroke-width="0.76" stroke-miterlimit="10"/>
<path d="M188.192 136.329L180.653 156.462" stroke="black" stroke-width="0.76" stroke-miterlimit="10"/>
<path d="M174.908 128.581L167.145 144.21" stroke="black" stroke-width="0.76" stroke-miterlimit="10"/>
</g>
<defs>
<clipPath id="clip0_55_983">
<rect width="400" height="400" fill="white"/>
</clipPath>
</defs>
</svg>
